<svg width="1473" height="363" viewBox="0 0 1473 363" fill="none" xmlns="http://www.w3.org/2000/svg">
<path fill-rule="evenodd" clip-rule="evenodd" d="M683.491 -1199.93C863.773 -1209.89 1030.63 -1334.31 1204.76 -1286.56C1403.01 -1232.19 1601.03 -1112.42 1685.72 -925.089C1770.39 -737.787 1700.2 -521.638 1639.29 -325.317C1583.66 -146.004 1495.1 20.4316 1353.97 144.236C1214.85 266.278 1041.77 376.941 857.431 360.544C682.09 344.947 597.66 134.814 437.084 62.6768C247.161 -22.6445 -54.8494 91.1854 -152.04 -92.9523C-247.223 -273.286 15.5524 -451.665 60.6418 -650.529C104.23 -842.774 -43.0266 -1095.35 104.802 -1225.74C253.242 -1356.67 485.861 -1189 683.491 -1199.93Z" fill="#F6F6F6"/>
</svg>
