<svg width="1792" height="124" viewBox="0 0 1792 124" fill="none" xmlns="http://www.w3.org/2000/svg">
<path fill-rule="evenodd" clip-rule="evenodd" d="M762.403 110.344C991.242 94.7622 1206.73 -32.965 1425.92 8.4256C1675.49 55.5519 1922.65 167.016 2023.99 348.574C2125.32 530.103 2029.42 744.97 1945.92 940.035C1869.66 1118.2 1752.08 1284.75 1569.21 1411.06C1388.95 1535.57 1166.01 1649.97 932.879 1639.74C711.121 1630.02 610.833 1426.03 409.603 1360.21C171.595 1282.37 -214.874 1404.02 -332.17 1226.01C-447.043 1051.67 -108.239 867.784 -44.7117 670.724C16.7007 480.223 -161.865 236.498 29.6973 103.496C222.052 -30.0555 511.542 127.426 762.403 110.344Z" fill="#F6F6F6"/>
</svg>
