<svg width="1440" height="1661" viewBox="0 0 1440 1661" fill="none" xmlns="http://www.w3.org/2000/svg">
<path fill-rule="evenodd" clip-rule="evenodd" d="M629.491 98.0715C809.772 88.1038 976.627 -36.3092 1150.76 11.4415C1349.01 65.8092 1547.03 185.576 1631.72 372.909C1716.39 560.211 1646.2 776.36 1585.29 972.681C1529.66 1151.99 1441.1 1318.43 1299.97 1442.23C1160.85 1564.28 987.768 1674.94 803.431 1658.54C628.09 1642.94 543.66 1432.81 383.084 1360.67C193.161 1275.35 -108.849 1389.18 -206.04 1205.05C-301.223 1024.71 -38.4476 846.333 6.64183 647.469C50.2304 455.224 -97.0266 202.653 50.8019 72.2577C199.242 -58.6766 431.861 108.998 629.491 98.0715Z" fill="#F6F6F6"/>
</svg>
