<svg width="26" height="22" viewBox="0 0 26 22" fill="none" xmlns="http://www.w3.org/2000/svg">
<path d="M0 10.5633C0 10.9713 0.176827 11.3793 0.489676 11.6785L9.46708 20.641C9.79353 20.9538 10.1472 21.1034 10.5416 21.1034C11.3986 21.1034 12.0243 20.4914 12.0243 19.6618C12.0243 19.2266 11.861 18.8594 11.5754 18.5874L8.51493 15.4865L4.57031 11.8825L7.73961 12.0729H24.2254C25.1231 12.0729 25.7488 11.4473 25.7488 10.5633C25.7488 9.66566 25.1231 9.04005 24.2254 9.04005H7.73961L4.58391 9.23045L8.51493 5.6264L11.5754 2.52556C11.861 2.25355 12.0243 1.88635 12.0243 1.45114C12.0243 0.62153 11.3986 0.00952148 10.5416 0.00952148C10.1472 0.00952148 9.77992 0.159124 9.42627 0.499129L0.489676 9.43446C0.176827 9.73366 0 10.1417 0 10.5633Z" fill="#80858A"/>
</svg>
