<svg width="27" height="22" viewBox="0 0 27 22" fill="none" xmlns="http://www.w3.org/2000/svg">
<path d="M26.2173 11.1737C26.2173 10.7521 26.0405 10.3441 25.7276 10.0449L16.791 1.1096C16.4374 0.769597 16.0701 0.619995 15.6893 0.619995C14.8187 0.619995 14.193 1.232 14.193 2.06162C14.193 2.49682 14.3699 2.86403 14.6419 3.13603L17.7024 6.23687L21.647 9.84092L18.4913 9.65052H2.00555C1.0942 9.65052 0.468506 10.2761 0.468506 11.1737C0.468506 12.0578 1.0942 12.6834 2.00555 12.6834H18.4913L21.647 12.493L17.7024 16.097L14.6419 19.1979C14.3699 19.4699 14.193 19.8371 14.193 20.2723C14.193 21.1019 14.8187 21.7139 15.6893 21.7139C16.0701 21.7139 16.4374 21.5643 16.7638 21.2515L25.7276 12.289C26.0405 11.9898 26.2173 11.5817 26.2173 11.1737Z" fill="#80858A"/>
</svg>
