<svg width="18" height="20" viewBox="0 0 18 20" fill="none" xmlns="http://www.w3.org/2000/svg">
<path fill-rule="evenodd" clip-rule="evenodd" d="M8.29286 2.29289C8.4804 2.10536 8.73475 2 8.99997 2C9.26519 2 9.51954 2.10536 9.70708 2.29289C9.89462 2.48043 9.99997 2.73478 9.99997 3C9.99997 3.38669 10.2229 3.73873 10.5725 3.90403C11.5569 4.36948 12.396 5.09402 13 6C13.5998 6.89972 13.9452 7.9447 14 9.02436V12C14 12.0402 14.0024 12.0803 14.0072 12.1202C14.0875 12.7832 14.2996 13.4222 14.6298 14H12H5.99997H3.37018C3.70037 13.4222 3.91247 12.7832 3.99272 12.1202C3.99755 12.0803 3.99997 12.0402 3.99997 12V9.02436C4.05471 7.94469 4.40016 6.89972 4.99997 6C5.60014 5.09974 6.43251 4.37863 7.40883 3.91287C7.45652 3.89148 7.50223 3.86646 7.54561 3.83816C7.66891 3.75812 7.7698 3.65397 7.84494 3.53506C7.9484 3.37133 8.00303 3.17962 8.00009 2.98434C8.00415 2.72479 8.10902 2.47674 8.29286 2.29289ZM4.99997 16H0.99997C0.545812 16 0.148685 15.694 0.0329719 15.2548C-0.0827408 14.8156 0.112022 14.3536 0.507216 14.1298C0.91592 13.8984 1.26457 13.5742 1.52511 13.1834C1.77528 12.8082 1.93749 12.3815 1.99997 11.9353V9C1.99997 8.98437 2.00034 8.96873 2.00107 8.95311C2.06914 7.50291 2.53056 6.09857 3.33587 4.8906C4.03633 3.83991 4.974 2.97224 6.06996 2.35572C6.19204 1.80059 6.47045 1.28688 6.87865 0.878679C7.44126 0.31607 8.20432 0 8.99997 0C9.79562 0 10.5587 0.31607 11.1213 0.878679C11.5295 1.28688 11.8079 1.80059 11.93 2.35572C13.0259 2.97224 13.9636 3.83991 14.6641 4.8906C15.4694 6.09857 15.9308 7.50291 15.9989 8.95311C15.9996 8.96873 16 8.98437 16 9V11.9354C16.0625 12.3815 16.2247 12.8082 16.4748 13.1834C16.7354 13.5742 17.084 13.8984 17.4927 14.1298C17.8879 14.3536 18.0827 14.8156 17.967 15.2548C17.8513 15.694 17.4541 16 17 16H13C13 17.0609 12.5785 18.0783 11.8284 18.8284C11.0783 19.5786 10.0608 20 8.99997 20C7.9391 20 6.92169 19.5786 6.17154 18.8284C5.4214 18.0783 4.99997 17.0609 4.99997 16ZM11 16C11 16.5304 10.7893 17.0391 10.4142 17.4142C10.0391 17.7893 9.5304 18 8.99997 18C8.46954 18 7.96083 17.7893 7.58576 17.4142C7.21068 17.0391 6.99997 16.5304 6.99997 16H11Z" fill="#2C3E50"/>
</svg>
