<svg width="12" height="18" viewBox="0 0 12 18" fill="none" xmlns="http://www.w3.org/2000/svg">
<path fill-rule="evenodd" clip-rule="evenodd" d="M3 2.00001C2.73478 2.00001 2.48043 2.10536 2.29289 2.2929C2.10536 2.48044 2 2.73479 2 3.00001V15.2338L5.4855 13.1425C5.80219 12.9525 6.19781 12.9525 6.5145 13.1425L10 15.2338V3.00001C10 2.73479 9.89464 2.48044 9.70711 2.2929C9.51957 2.10536 9.26522 2.00001 9 2.00001H3ZM0.87868 0.878687C1.44129 0.316078 2.20435 7.62939e-06 3 7.62939e-06H9C9.79565 7.62939e-06 10.5587 0.316078 11.1213 0.878687C11.6839 1.4413 12 2.20436 12 3.00001V17C12 17.3603 11.8062 17.6927 11.4927 17.8702C11.1792 18.0477 10.7944 18.0429 10.4855 17.8575L6 15.1662L1.5145 17.8575C1.20557 18.0429 0.82081 18.0477 0.507301 17.8702C0.193793 17.6927 0 17.3603 0 17V3.00001C0 2.20436 0.31607 1.4413 0.87868 0.878687Z" fill="#2C3E50"/>
</svg>
