<svg width="20" height="20" viewBox="0 0 20 20" fill="none" xmlns="http://www.w3.org/2000/svg">
<path fill-rule="evenodd" clip-rule="evenodd" d="M10 2C5.58172 2 2 5.58172 2 10C2 14.4183 5.58172 18 10 18C14.4183 18 18 14.4183 18 10C18 5.58172 14.4183 2 10 2ZM0 10C0 4.47715 4.47715 0 10 0C15.5228 0 20 4.47715 20 10C20 15.5228 15.5228 20 10 20C4.47715 20 0 15.5228 0 10ZM14.7071 5.29289C14.9749 5.56073 15.0685 5.95689 14.9487 6.31623L12.9487 12.3162C12.8491 12.6148 12.6148 12.8491 12.3162 12.9487L6.31623 14.9487C5.95689 15.0685 5.56073 14.9749 5.29289 14.7071C5.02506 14.4393 4.93154 14.0431 5.05132 13.6838L7.05132 7.68377C7.15085 7.38517 7.38517 7.15085 7.68377 7.05132L13.6838 5.05132C14.0431 4.93154 14.4393 5.02506 14.7071 5.29289ZM8.79057 8.79057L7.58114 12.4189L11.2094 11.2094L12.4189 7.58114L8.79057 8.79057Z" fill="#2C3E50"/>
</svg>
