<svg width="15" height="17" viewBox="0 0 15 17" fill="none" xmlns="http://www.w3.org/2000/svg">
<path fill-rule="evenodd" clip-rule="evenodd" d="M4.16671 0C4.58092 0 4.91671 0.335786 4.91671 0.75V1.66667H10.0834V0.75C10.0834 0.335786 10.4192 0 10.8334 0C11.2476 0 11.5834 0.335786 11.5834 0.75V1.66667H12.5C13.8347 1.66667 14.9167 2.74865 14.9167 4.08333V14.0833C14.9167 15.418 13.8347 16.5 12.5 16.5H2.50004C1.16535 16.5 0.083374 15.418 0.083374 14.0833V4.08333C0.083374 2.74864 1.16535 1.66667 2.50004 1.66667H3.41671V0.75C3.41671 0.335786 3.75249 0 4.16671 0ZM3.41671 3.16667H2.50004C1.99378 3.16667 1.58337 3.57707 1.58337 4.08333V6.66667H13.4167V4.08333C13.4167 3.57707 13.0063 3.16667 12.5 3.16667H11.5834V4.08333C11.5834 4.49755 11.2476 4.83333 10.8334 4.83333C10.4192 4.83333 10.0834 4.49755 10.0834 4.08333V3.16667H4.91671V4.08333C4.91671 4.49755 4.58092 4.83333 4.16671 4.83333C3.75249 4.83333 3.41671 4.49755 3.41671 4.08333V3.16667ZM13.4167 8.16667H1.58337V14.0833C1.58337 14.5896 1.99378 15 2.50004 15H12.5C13.0063 15 13.4167 14.5896 13.4167 14.0833V8.16667ZM3.41671 10.75C3.41671 10.3358 3.75249 10 4.16671 10H5.83337C6.24759 10 6.58337 10.3358 6.58337 10.75V12.4167C6.58337 12.8309 6.24759 13.1667 5.83337 13.1667H4.16671C3.75249 13.1667 3.41671 12.8309 3.41671 12.4167V10.75ZM4.91671 11.5V11.6667H5.08337V11.5H4.91671Z" fill="#858585"/>
</svg>
