<svg width="20" height="20" viewBox="0 0 20 20" fill="none" xmlns="http://www.w3.org/2000/svg">
<path d="M8.70711 7.2929C8.31658 6.90237 7.68342 6.90237 7.29289 7.2929C6.90237 7.68342 6.90237 8.31659 7.29289 8.70711L8.58579 10L7.29289 11.2929C6.90237 11.6834 6.90237 12.3166 7.29289 12.7071C7.68342 13.0976 8.31658 13.0976 8.70711 12.7071L10 11.4142L11.2929 12.7071C11.6834 13.0976 12.3166 13.0976 12.7071 12.7071C13.0976 12.3166 13.0976 11.6834 12.7071 11.2929L11.4142 10L12.7071 8.70711C13.0976 8.31659 13.0976 7.68342 12.7071 7.2929C12.3166 6.90237 11.6834 6.90237 11.2929 7.2929L10 8.58579L8.70711 7.2929Z" fill="#2C3E50"/>
<path fill-rule="evenodd" clip-rule="evenodd" d="M10 0C4.47715 0 0 4.47715 0 10C0 15.5228 4.47715 20 10 20C15.5228 20 20 15.5228 20 10C20 4.47715 15.5228 0 10 0ZM2 10C2 5.58172 5.58172 2 10 2C14.4183 2 18 5.58172 18 10C18 14.4183 14.4183 18 10 18C5.58172 18 2 14.4183 2 10Z" fill="#2C3E50"/>
</svg>
