<svg width="20" height="20" viewBox="0 0 20 20" fill="none" xmlns="http://www.w3.org/2000/svg">
<path d="M11 6C11 5.44772 10.5523 5 10 5C9.44772 5 9 5.44772 9 6H11ZM9 10C9 10.5523 9.44772 11 10 11C10.5523 11 11 10.5523 11 10H9ZM10 13C9.44772 13 9 13.4477 9 14C9 14.5523 9.44772 15 10 15V13ZM10.01 15C10.5623 15 11.01 14.5523 11.01 14C11.01 13.4477 10.5623 13 10.01 13V15ZM18 10C18 14.4183 14.4183 18 10 18V20C15.5228 20 20 15.5228 20 10H18ZM10 18C5.58172 18 2 14.4183 2 10H0C0 15.5228 4.47715 20 10 20V18ZM2 10C2 5.58172 5.58172 2 10 2V0C4.47715 0 0 4.47715 0 10H2ZM10 2C14.4183 2 18 5.58172 18 10H20C20 4.47715 15.5228 0 10 0V2ZM9 6V10H11V6H9ZM10 15H10.01V13H10V15Z" fill="#2C3E50"/>
</svg>
