<svg width="20" height="20" viewBox="0 0 20 20" fill="none" xmlns="http://www.w3.org/2000/svg">
<path d="M7 9C6.44772 9 6 9.44772 6 10C6 10.5523 6.44772 11 7 11V9ZM13 11C13.5523 11 14 10.5523 14 10C14 9.44772 13.5523 9 13 9V11ZM11 7C11 6.44772 10.5523 6 10 6C9.44772 6 9 6.44772 9 7H11ZM9 13C9 13.5523 9.44772 14 10 14C10.5523 14 11 13.5523 11 13H9ZM18 10C18 14.4183 14.4183 18 10 18V20C15.5228 20 20 15.5228 20 10H18ZM10 18C5.58172 18 2 14.4183 2 10H0C0 15.5228 4.47715 20 10 20V18ZM2 10C2 5.58172 5.58172 2 10 2V0C4.47715 0 0 4.47715 0 10H2ZM10 2C14.4183 2 18 5.58172 18 10H20C20 4.47715 15.5228 0 10 0V2ZM7 11H13V9H7V11ZM9 7V13H11V7H9Z" fill="#2C3E50"/>
</svg>
