<svg width="20" height="20" viewBox="0 0 20 20" fill="none" xmlns="http://www.w3.org/2000/svg">
<path fill-rule="evenodd" clip-rule="evenodd" d="M10 2C5.58172 2 2 5.58172 2 10C2 14.4183 5.58172 18 10 18C14.4183 18 18 14.4183 18 10C18 5.58172 14.4183 2 10 2ZM0 10C0 4.47715 4.47715 0 10 0C15.5228 0 20 4.47715 20 10C20 15.5228 15.5228 20 10 20C4.47715 20 0 15.5228 0 10ZM8.47476 4.34491C8.97416 4.0978 9.52411 3.96998 10.0813 3.97153C10.6385 3.97307 11.1877 4.10394 11.6858 4.35381C12.1838 4.60369 12.617 4.96576 12.9513 5.41152C13.2856 5.85727 13.5119 6.37455 13.6124 6.92262C13.7128 7.47069 13.6846 8.03459 13.5301 8.56993C13.3756 9.10526 13.0989 9.59743 12.7218 10.0077C12.3448 10.4179 11.8776 10.735 11.3572 10.934C11.3487 10.9373 11.3403 10.9404 11.3317 10.9434C11.2295 10.9793 11.1417 11.0475 11.0816 11.1377C11.0215 11.2279 10.9923 11.3352 10.9984 11.4434C11.0297 11.9948 10.608 12.4671 10.0566 12.4984C9.50523 12.5297 9.03288 12.108 9.00161 11.5566C8.97092 11.0156 9.11687 10.4792 9.41747 10.0283C9.71494 9.58212 10.1479 9.24352 10.6523 9.0623C10.8798 8.97365 11.084 8.83408 11.2493 8.65425C11.4169 8.47192 11.5399 8.25318 11.6086 8.01525C11.6772 7.77732 11.6898 7.5267 11.6451 7.28312C11.6005 7.03953 11.4999 6.80963 11.3513 6.61152C11.2027 6.4134 11.0102 6.25248 10.7888 6.14143C10.5675 6.03037 10.3234 5.97221 10.0758 5.97152C9.82812 5.97083 9.5837 6.02764 9.36174 6.13747C9.13978 6.24729 8.94635 6.40714 8.79667 6.60443C8.46285 7.04441 7.83556 7.13048 7.39558 6.79666C6.95559 6.46284 6.86953 5.83556 7.20335 5.39557C7.54013 4.95168 7.97536 4.59202 8.47476 4.34491ZM10 14C10.5523 14 11 14.4477 11 15V15.01C11 15.5623 10.5523 16.01 10 16.01C9.44771 16.01 9 15.5623 9 15.01V15C9 14.4477 9.44771 14 10 14Z" fill="#2C3E50"/>
</svg>
