<svg width="17" height="17" viewBox="0 0 17 17" fill="none" xmlns="http://www.w3.org/2000/svg">
<path fill-rule="evenodd" clip-rule="evenodd" d="M8.33337 1.5C4.60545 1.5 1.58337 4.52208 1.58337 8.25C1.58337 11.9779 4.60545 15 8.33337 15C12.0613 15 15.0834 11.9779 15.0834 8.25C15.0834 4.52208 12.0613 1.5 8.33337 1.5ZM0.083374 8.25C0.083374 3.69365 3.77702 0 8.33337 0C12.8897 0 16.5834 3.69365 16.5834 8.25C16.5834 12.8063 12.8897 16.5 8.33337 16.5C3.77702 16.5 0.083374 12.8063 0.083374 8.25ZM8.33337 3.33333C8.74759 3.33333 9.08337 3.66912 9.08337 4.08333V7.93934L11.3637 10.2197C11.6566 10.5126 11.6566 10.9874 11.3637 11.2803C11.0708 11.5732 10.5959 11.5732 10.303 11.2803L7.80304 8.78033C7.66239 8.63968 7.58337 8.44891 7.58337 8.25V4.08333C7.58337 3.66912 7.91916 3.33333 8.33337 3.33333Z" fill="#858585"/>
</svg>
