<svg width="19" height="19" viewBox="0 0 19 19" fill="none" xmlns="http://www.w3.org/2000/svg">
<path fill-rule="evenodd" clip-rule="evenodd" d="M14.9455 0.00148314C14.9637 0.00049454 14.9818 0 15 0C16.0609 0 17.0783 0.421427 17.8284 1.17157C18.5786 1.92172 19 2.93913 19 4C19 4.01816 18.9995 4.03631 18.9985 4.05444C18.8908 6.02926 18.2 7.92781 17.0133 9.51001C15.9586 10.9164 14.5542 12.0167 12.9448 12.7048C12.821 13.6569 12.5022 14.576 12.0057 15.4034C11.3933 16.4241 10.5307 17.2718 9.49945 17.8663C9.20827 18.0342 8.85223 18.0446 8.55178 17.8939C8.25132 17.7433 8.04665 17.4518 8.00698 17.118C7.96 16.7227 7.87968 16.3343 7.76785 15.9567C7.22905 16.505 6.60067 16.9637 5.90563 17.3113C4.65847 17.9349 3.25349 18.1718 1.8708 17.9916C1.421 17.933 1.06698 17.579 1.00837 17.1292C0.828235 15.7465 1.06514 14.3415 1.68872 13.0944C2.03624 12.3993 2.49504 11.7709 3.04331 11.2321C2.66565 11.1203 2.27728 11.04 1.88198 10.993C1.54822 10.9533 1.25672 10.7487 1.10607 10.4482C0.95542 10.1478 0.965784 9.79173 1.13365 9.50054C1.72818 8.4693 2.57585 7.60671 3.59656 6.99428C4.42403 6.4978 5.34305 6.17903 6.29522 6.05519C6.98332 4.44584 8.08361 3.04143 9.48998 1.98665C11.0722 0.8 12.9707 0.109158 14.9455 0.00148314ZM5.01887 12.1739C4.36869 12.6443 3.83892 13.2661 3.47758 13.9888C3.15585 14.6322 2.97822 15.3345 2.95287 16.0471C3.66547 16.0218 4.36774 15.8441 5.0112 15.5224C5.73389 15.1611 6.35568 14.6313 6.82608 13.9811C6.58473 13.6297 6.31047 13.2992 6.00564 12.9943C5.70081 12.6895 5.37028 12.4153 5.01887 12.1739ZM15.0253 2.00016C13.4559 2.09147 11.948 2.64317 10.69 3.58665C9.42422 4.53597 8.46838 5.83931 7.94333 7.33185C7.80651 7.72076 7.44505 7.98585 7.033 7.99945C6.18322 8.02752 5.35463 8.27182 4.62555 8.70927C4.31479 8.89572 4.02649 9.11465 3.76507 9.36152C5.13608 9.79431 6.3917 10.552 7.41986 11.5801C8.44802 12.6083 9.20568 13.8639 9.63847 15.2349C9.88535 14.9735 10.1043 14.6852 10.2907 14.3744C10.7282 13.6454 10.9725 12.8168 11.0005 11.967C11.0141 11.5549 11.2792 11.1935 11.6681 11.0567C13.1607 10.5316 14.464 9.57577 15.4133 8.31001C16.3568 7.05204 16.9085 5.54409 16.9998 3.97471C16.9932 3.45342 16.7833 2.95489 16.4142 2.58579C16.0451 2.21668 15.5466 2.00674 15.0253 2.00016ZM11 6C11 4.89543 11.8954 4 13 4C14.1046 4 15 4.89543 15 6C15 7.10457 14.1046 8 13 8C11.8954 8 11 7.10457 11 6Z" fill="#2C3E50"/>
</svg>
