<svg width="4" height="18" viewBox="0 0 4 18" fill="none" xmlns="http://www.w3.org/2000/svg">
<path fill-rule="evenodd" clip-rule="evenodd" d="M0 2C0 0.89543 0.895431 0 2 0C3.10457 0 4 0.89543 4 2C4 3.10457 3.10457 4 2 4C0.895431 4 0 3.10457 0 2ZM0 8.99999C0 7.89542 0.895431 6.99999 2 6.99999C3.10457 6.99999 4 7.89542 4 8.99999C4 10.1046 3.10457 11 2 11C0.895431 11 0 10.1046 0 8.99999ZM0 16C0 14.8954 0.895431 14 2 14C3.10457 14 4 14.8954 4 16C4 17.1046 3.10457 18 2 18C0.895431 18 0 17.1046 0 16Z" fill="#2C3E50"/>
</svg>
