<svg width="24" height="22" viewBox="0 0 24 22" fill="none" xmlns="http://www.w3.org/2000/svg">
<path d="M3.83333 0.666504C2.94928 0.666504 2.10143 1.01769 1.47631 1.64281C0.851189 2.26794 0.5 3.11578 0.5 3.99984V17.9998C0.5 18.8839 0.851189 19.7317 1.47631 20.3569C2.10143 20.982 2.94928 21.3332 3.83333 21.3332H12C12.8841 21.3332 13.7319 20.982 14.357 20.3569C14.9821 19.7317 15.3333 18.8839 15.3333 17.9998V15.6665C15.3333 15.1142 14.8856 14.6665 14.3333 14.6665C13.781 14.6665 13.3333 15.1142 13.3333 15.6665V17.9998C13.3333 18.3535 13.1929 18.6926 12.9428 18.9426C12.6928 19.1927 12.3536 19.3332 12 19.3332H3.83333C3.47971 19.3332 3.14057 19.1927 2.89052 18.9426C2.64048 18.6926 2.5 18.3535 2.5 17.9998V3.99984C2.5 3.64621 2.64048 3.30708 2.89052 3.05703C3.14057 2.80698 3.47971 2.6665 3.83333 2.6665H12C12.3536 2.6665 12.6928 2.80698 12.9428 3.05703C13.1929 3.30708 13.3333 3.64622 13.3333 3.99984V6.33317C13.3333 6.88545 13.781 7.33317 14.3333 7.33317C14.8856 7.33317 15.3333 6.88545 15.3333 6.33317V3.99984C15.3333 3.11578 14.9821 2.26794 14.357 1.64281C13.7319 1.01769 12.8841 0.666504 12 0.666504H3.83333Z" fill="#5E5E5E"/>
<path d="M19.7072 6.79289C19.3167 6.40237 18.6835 6.40237 18.293 6.79289C17.9025 7.18342 17.9025 7.81658 18.293 8.20711L20.0859 10H6.16675C5.61446 10 5.16675 10.4477 5.16675 11C5.16675 11.5523 5.61446 12 6.16675 12H20.0859L18.293 13.7929C17.9025 14.1834 17.9025 14.8166 18.293 15.2071C18.6835 15.5976 19.3167 15.5976 19.7072 15.2071L23.2072 11.7071C23.3947 11.5196 23.5001 11.2652 23.5001 11C23.5001 10.7348 23.3947 10.4804 23.2072 10.2929L19.7072 6.79289Z" fill="#5E5E5E"/>
</svg>
