<svg width="22" height="20" viewBox="0 0 22 20" fill="none" xmlns="http://www.w3.org/2000/svg">
<path fill-rule="evenodd" clip-rule="evenodd" d="M1.2929 0.292893C1.68342 -0.0976311 2.31659 -0.0976311 2.70711 0.292893L10.2049 7.79072C10.2058 7.79153 10.2066 7.79235 10.2074 7.79317C10.208 7.79382 10.2087 7.79447 10.2093 7.79512L13.2051 10.7909C13.2059 10.7916 13.2066 10.7924 13.2074 10.7932C13.208 10.7938 13.2086 10.7944 13.2092 10.795L16.9833 14.569C17.0385 14.6134 17.0897 14.6643 17.1356 14.7214L20.7071 18.2929C21.0976 18.6834 21.0976 19.3166 20.7071 19.7071C20.3166 20.0976 19.6834 20.0976 19.2929 19.7071L16.206 16.6203C14.6047 17.5367 12.8653 18 11 18C6.51999 18 2.9072 15.3529 0.131768 10.4962C-0.0439426 10.1887 -0.0439215 9.8112 0.131824 9.50374C1.30972 7.44307 2.63695 5.77712 4.12709 4.5413L1.2929 1.70711C0.902374 1.31658 0.902374 0.683418 1.2929 0.292893ZM5.54861 5.96282C4.34564 6.92592 3.2122 8.26125 2.15993 10.0001C4.65785 14.1306 7.61281 16 11 16C12.3253 16 13.5638 15.7158 14.7281 15.1423L12.4085 12.8227C12.4048 12.8244 12.401 12.8261 12.3973 12.8278C12.0242 12.9945 11.6464 13.0001 11.3417 13C10.4551 12.9997 9.60496 12.6472 8.97829 12.0201C8.35161 11.393 7.99973 10.5426 8.00004 9.65604C8.00015 9.35229 8.00569 8.97432 8.17251 8.60149C8.17403 8.59809 8.17556 8.5947 8.1771 8.59131L5.54861 5.96282ZM10.4306 4.01691L18.4414 12.019C18.9223 11.4183 19.3888 10.7459 19.8401 9.9999C17.3422 5.86945 14.3872 4 11 4L10.9965 3.99999C10.8075 3.99932 10.6188 4.00498 10.4306 4.01691ZM11.0018 2C10.0164 1.99667 9.0354 2.13254 8.08797 2.40356C7.74727 2.50102 7.4836 2.77151 7.39486 3.11458C7.30612 3.45764 7.40557 3.82205 7.65628 4.07249L17.7903 14.1955C17.9827 14.3877 18.245 14.4932 18.5169 14.4878C18.7888 14.4824 19.0468 14.3665 19.2314 14.1668C20.1827 13.1375 21.0598 11.9104 21.8682 10.4963C22.0439 10.1888 22.0439 9.81132 21.8682 9.50384C19.0932 4.64773 15.481 2.0007 11.0018 2Z" fill="#2C3E50"/>
</svg>
