<svg width="22" height="16" viewBox="0 0 22 16" fill="none" xmlns="http://www.w3.org/2000/svg">
<path fill-rule="evenodd" clip-rule="evenodd" d="M2.15986 8C4.65779 12.1305 7.61278 14 11 14C14.3872 14 17.3422 12.1305 19.8401 8C17.3422 3.86948 14.3872 2 11 2C7.61278 2 4.65779 3.86948 2.15986 8ZM0.131768 7.50384C2.9072 2.64709 6.51999 0 11 0C15.48 0 19.0928 2.64709 21.8682 7.50384C22.0439 7.81128 22.0439 8.18872 21.8682 8.49616C19.0928 13.3529 15.48 16 11 16C6.51999 16 2.9072 13.3529 0.131768 8.49616C-0.0439228 8.18872 -0.0439228 7.81128 0.131768 7.50384ZM11 6C9.89544 6 9.00001 6.89543 9.00001 8C9.00001 9.10457 9.89544 10 11 10C12.1046 10 13 9.10457 13 8C13 6.89543 12.1046 6 11 6ZM7.00001 8C7.00001 5.79086 8.79087 4 11 4C13.2091 4 15 5.79086 15 8C15 10.2091 13.2091 12 11 12C8.79087 12 7.00001 10.2091 7.00001 8Z" fill="#2C3E50"/>
</svg>
