<svg width="20" height="17" viewBox="0 0 20 17" fill="none" xmlns="http://www.w3.org/2000/svg">
<path fill-rule="evenodd" clip-rule="evenodd" d="M3 2.00001C2.73478 2.00001 2.48043 2.10536 2.29289 2.2929C2.10536 2.48044 2 2.73479 2 3.00001V14C2 14.2652 2.10536 14.5196 2.29289 14.7071C2.48043 14.8946 2.73478 15 3 15H17C17.2652 15 17.5196 14.8946 17.7071 14.7071C17.8946 14.5196 18 14.2652 18 14V6.00001C18 5.73479 17.8946 5.48044 17.7071 5.2929C17.5196 5.10536 17.2652 5.00001 17 5.00001H10C9.73478 5.00001 9.48043 4.89465 9.29289 4.70711L6.58579 2.00001H3ZM0.87868 0.878687C1.44129 0.316078 2.20435 7.62939e-06 3 7.62939e-06H7C7.26522 7.62939e-06 7.51957 0.105364 7.70711 0.292901L10.4142 3.00001H17C17.7957 3.00001 18.5587 3.31608 19.1213 3.87869C19.6839 4.4413 20 5.20436 20 6.00001V14C20 14.7957 19.6839 15.5587 19.1213 16.1213C18.5587 16.6839 17.7957 17 17 17H3C2.20435 17 1.44129 16.6839 0.87868 16.1213C0.31607 15.5587 0 14.7957 0 14V3.00001C0 2.20436 0.31607 1.4413 0.87868 0.878687Z" fill="#2C3E50"/>
</svg>
