<svg width="16" height="20" viewBox="0 0 16 20" fill="none" xmlns="http://www.w3.org/2000/svg">
<path fill-rule="evenodd" clip-rule="evenodd" d="M2 3.4482V10.1164C2.77726 9.76012 3.629 9.57072 4.5 9.57072C6.07052 9.57072 7.57843 10.1865 8.7 11.2859C9.44772 12.0188 10.453 12.4293 11.5 12.4293C12.4127 12.4293 13.2937 12.1173 14 11.5518V4.88364C13.2227 5.23989 12.371 5.42929 11.5 5.42929C9.92948 5.42929 8.42157 4.81351 7.3 3.71415C6.55229 2.98124 5.54701 2.57072 4.5 2.57072C3.58729 2.57072 2.7063 2.88267 2 3.4482ZM2 12.4482C2.70631 11.8827 3.5873 11.5707 4.5 11.5707C5.54701 11.5707 6.55229 11.9812 7.3 12.7141C8.42157 13.8135 9.92948 14.4293 11.5 14.4293C13.0705 14.4293 14.5784 13.8135 15.7 12.7141C15.8919 12.5261 16 12.2687 16 12V2.99999C16 2.59735 15.7585 2.23398 15.3873 2.07804C15.0161 1.9221 14.5876 2.004 14.3 2.28585C13.5523 3.01876 12.547 3.42929 11.5 3.42929C10.453 3.42929 9.44772 3.01877 8.7 2.28586C7.57843 1.1865 6.07052 0.570721 4.5 0.570721C2.92949 0.570721 1.42158 1.18649 0.3 2.28585C0.108122 2.47393 3.57628e-07 2.73131 3.57628e-07 2.99999V11.9993C-1.19209e-07 11.9998 -1.19209e-07 12.0003 3.57628e-07 12.0009V19C3.57628e-07 19.5523 0.447716 20 1 20C1.55229 20 2 19.5523 2 19V12.4482Z" fill="#2C3E50"/>
</svg>
