<svg width="20" height="20" viewBox="0 0 20 20" fill="none" xmlns="http://www.w3.org/2000/svg">
<path d="M8.325 2.317L9.29668 2.55329L9.29681 2.55276L8.325 2.317ZM11.675 2.317L12.6469 2.08152L12.6468 2.08124L11.675 2.317ZM14.248 3.383L13.7277 2.52899L13.7274 2.52919L14.248 3.383ZM16.618 5.753L17.472 6.2732L17.4722 6.27302L16.618 5.753ZM17.683 8.325L17.4467 9.29668L17.4472 9.29681L17.683 8.325ZM17.683 11.675L17.9185 12.6469L17.9188 12.6468L17.683 11.675ZM16.617 14.248L17.471 13.7277L17.4708 13.7274L16.617 14.248ZM14.247 16.618L13.7268 17.472L13.727 17.4722L14.247 16.618ZM11.675 17.683L10.7033 17.4467L10.7032 17.4472L11.675 17.683ZM8.325 17.683L7.35312 17.9185L7.35319 17.9188L8.325 17.683ZM5.752 16.617L6.27226 17.471L6.27258 17.4708L5.752 16.617ZM3.382 14.247L2.52795 13.7268L2.52784 13.727L3.382 14.247ZM2.317 11.675L2.5533 10.7033L2.55276 10.7032L2.317 11.675ZM2.317 8.325L2.08152 7.35312L2.08124 7.35319L2.317 8.325ZM3.383 5.752L2.52899 6.27226L2.52919 6.27258L3.383 5.752ZM5.753 3.382L5.23298 4.23616L5.23349 4.23646L5.753 3.382ZM9.29681 2.55276C9.47561 1.81575 10.5244 1.81575 10.7032 2.55276L12.6468 2.08124C11.9736 -0.693747 8.02639 -0.693747 7.35319 2.08124L9.29681 2.55276ZM10.7031 2.55248C10.8041 2.9693 11.0021 3.35638 11.281 3.68222L12.8005 2.38178C12.7263 2.29518 12.6737 2.1923 12.6469 2.08152L10.7031 2.55248ZM11.281 3.68222C11.5598 4.00805 11.9117 4.26344 12.3079 4.4276L13.0734 2.5799C12.9681 2.53627 12.8746 2.46839 12.8005 2.38178L11.281 3.68222ZM12.3079 4.4276C12.7041 4.59175 13.1335 4.66003 13.5611 4.62688L13.4065 2.63286C13.2928 2.64167 13.1787 2.62353 13.0734 2.5799L12.3079 4.4276ZM13.5611 4.62688C13.9887 4.59372 14.4024 4.46008 14.7686 4.23681L13.7274 2.52919C13.6301 2.58853 13.5201 2.62405 13.4065 2.63286L13.5611 4.62688ZM14.7683 4.23701C15.416 3.84238 16.1589 4.58414 15.7638 5.23298L17.4722 6.27302C18.9571 3.83386 16.166 1.04362 13.7277 2.52899L14.7683 4.23701ZM15.764 5.2328C15.541 5.59883 15.4076 6.0123 15.3745 6.4396L17.3685 6.59395C17.3773 6.48038 17.4128 6.37048 17.472 6.2732L15.764 5.2328ZM15.3745 6.4396C15.3414 6.8669 15.4096 7.29598 15.5736 7.69195L17.4215 6.92681C17.3779 6.82156 17.3597 6.70752 17.3685 6.59395L15.3745 6.4396ZM15.5736 7.69195C15.7376 8.08793 15.9926 8.43963 16.3181 8.71847L17.6193 7.19964C17.5328 7.12553 17.465 7.03205 17.4215 6.92681L15.5736 7.69195ZM16.3181 8.71847C16.6436 8.9973 17.0303 9.19541 17.4467 9.29668L17.9193 7.35332C17.8086 7.3264 17.7058 7.27375 17.6193 7.19964L16.3181 8.71847ZM17.4472 9.29681C18.1843 9.47561 18.1843 10.5244 17.4472 10.7032L17.9188 12.6468C20.6937 11.9736 20.6937 8.02639 17.9188 7.35319L17.4472 9.29681ZM17.4475 10.7031C17.0307 10.8041 16.6436 11.0021 16.3178 11.281L17.6182 12.8005C17.7048 12.7263 17.8077 12.6737 17.9185 12.6469L17.4475 10.7031ZM16.3178 11.281C15.9919 11.5598 15.7366 11.9117 15.5724 12.3079L17.4201 13.0734C17.4637 12.9681 17.5316 12.8746 17.6182 12.8005L16.3178 11.281ZM15.5724 12.3079C15.4083 12.7041 15.34 13.1335 15.3731 13.5611L17.3671 13.4065C17.3583 13.2928 17.3765 13.1787 17.4201 13.0734L15.5724 12.3079ZM15.3731 13.5611C15.4063 13.9887 15.5399 14.4024 15.7632 14.7686L17.4708 13.7274C17.4115 13.6301 17.3759 13.5201 17.3671 13.4065L15.3731 13.5611ZM15.763 14.7683C16.1576 15.416 15.4159 16.1589 14.767 15.7638L13.727 17.4722C16.1661 18.9571 18.9564 16.166 17.471 13.7277L15.763 14.7683ZM14.7672 15.764C14.4012 15.541 13.9877 15.4076 13.5604 15.3745L13.4061 17.3685C13.5196 17.3773 13.6295 17.4128 13.7268 17.472L14.7672 15.764ZM13.5604 15.3745C13.1331 15.3414 12.704 15.4096 12.308 15.5736L13.0732 17.4215C13.1784 17.3779 13.2925 17.3597 13.4061 17.3685L13.5604 15.3745ZM12.308 15.5736C11.9121 15.7376 11.5604 15.9926 11.2815 16.3181L12.8004 17.6193C12.8745 17.5328 12.9679 17.465 13.0732 17.4215L12.308 15.5736ZM11.2815 16.3181C11.0027 16.6436 10.8046 17.0303 10.7033 17.4467L12.6467 17.9193C12.6736 17.8086 12.7263 17.7058 12.8004 17.6193L11.2815 16.3181ZM10.7032 17.4472C10.5244 18.1843 9.47561 18.1843 9.29681 17.4472L7.35319 17.9188C8.02639 20.6937 11.9736 20.6937 12.6468 17.9188L10.7032 17.4472ZM9.29688 17.4475C9.19589 17.0307 8.9979 16.6436 8.71904 16.3178L7.19954 17.6182C7.27366 17.7048 7.32628 17.8077 7.35312 17.9185L9.29688 17.4475ZM8.71904 16.3178C8.44018 15.9919 8.08832 15.7366 7.6921 15.5724L6.92659 17.4201C7.0319 17.4637 7.12542 17.5316 7.19954 17.6182L8.71904 16.3178ZM7.6921 15.5724C7.29589 15.4083 6.86651 15.34 6.43891 15.3731L6.59352 17.3671C6.70716 17.3583 6.82129 17.3765 6.92659 17.4201L7.6921 15.5724ZM6.43891 15.3731C6.01132 15.4063 5.5976 15.5399 5.23142 15.7632L6.27258 17.4708C6.36991 17.4115 6.47987 17.3759 6.59352 17.3671L6.43891 15.3731ZM5.23174 15.763C4.58396 16.1576 3.84113 15.4159 4.23616 14.767L2.52784 13.727C1.04287 16.1661 3.83404 18.9564 6.27226 17.471L5.23174 15.763ZM4.23605 14.7672C4.45899 14.4012 4.59243 13.9877 4.6255 13.5604L2.63147 13.4061C2.62268 13.5196 2.58721 13.6295 2.52795 13.7268L4.23605 14.7672ZM4.6255 13.5604C4.65858 13.1331 4.59036 12.704 4.4264 12.308L2.57855 13.0732C2.62213 13.1784 2.64026 13.2925 2.63147 13.4061L4.6255 13.5604ZM4.4264 12.308C4.26243 11.9121 4.00735 11.5604 3.68188 11.2815L2.38067 12.8004C2.46717 12.8745 2.53497 12.9679 2.57855 13.0732L4.4264 12.308ZM3.68188 11.2815C3.35641 11.0027 2.96974 10.8046 2.5533 10.7033L2.0807 12.6467C2.19139 12.6736 2.29416 12.7263 2.38067 12.8004L3.68188 11.2815ZM2.55276 10.7032C1.81575 10.5244 1.81575 9.47561 2.55276 9.29681L2.08124 7.35319C-0.693747 8.02639 -0.693747 11.9736 2.08124 12.6468L2.55276 10.7032ZM2.55248 9.29688C2.9693 9.19589 3.35638 8.9979 3.68222 8.71904L2.38178 7.19954C2.29518 7.27366 2.1923 7.32628 2.08152 7.35312L2.55248 9.29688ZM3.68222 8.71904C4.00805 8.44018 4.26344 8.08832 4.4276 7.6921L2.5799 6.92659C2.53627 7.0319 2.46839 7.12542 2.38178 7.19954L3.68222 8.71904ZM4.4276 7.6921C4.59175 7.29588 4.66003 6.86651 4.62688 6.43891L2.63286 6.59352C2.64167 6.70716 2.62353 6.82129 2.5799 6.92659L4.4276 7.6921ZM4.62688 6.43891C4.59372 6.01132 4.46008 5.5976 4.23681 5.23142L2.52919 6.27258C2.58853 6.36991 2.62405 6.47987 2.63286 6.59352L4.62688 6.43891ZM4.23701 5.23174C3.84238 4.58396 4.58414 3.84113 5.23298 4.23616L6.27302 2.52784C3.83386 1.04287 1.04362 3.83404 2.52899 6.27226L4.23701 5.23174ZM5.23349 4.23646C6.81147 5.19588 8.86074 4.34603 9.29668 2.55329L7.35332 2.08071C7.23726 2.55797 6.69453 2.78412 6.27251 2.52754L5.23349 4.23646ZM12 10C12 11.1046 11.1046 12 10 12V14C12.2091 14 14 12.2091 14 10H12ZM10 12C8.89543 12 8 11.1046 8 10H6C6 12.2091 7.79086 14 10 14V12ZM8 10C8 8.89543 8.89543 8 10 8V6C7.79086 6 6 7.79086 6 10H8ZM10 8C11.1046 8 12 8.89543 12 10H14C14 7.79086 12.2091 6 10 6V8Z" fill="#2C3E50"/>
</svg>
