<svg width="19" height="19" viewBox="0 0 19 19" fill="none" xmlns="http://www.w3.org/2000/svg">
<path fill-rule="evenodd" clip-rule="evenodd" d="M9.02999 0.00023222C8.21469 0.00023222 7.42265 0.272015 6.77912 0.772601L6.77897 0.772717L1.44512 4.9206L1.44511 4.9206C1.00427 5.26343 0.647604 5.70246 0.402347 6.20418C0.15716 6.70575 0.0298034 7.25671 0.029995 7.815V7.8152V15.015C0.029995 15.8106 0.346065 16.5737 0.908675 17.1363C1.47129 17.6989 2.23435 18.015 3.02999 18.015H15.03C15.8256 18.015 16.5887 17.6989 17.1513 17.1363C17.7139 16.5737 18.03 15.8106 18.03 15.015V7.815C18.03 6.68361 17.5077 5.61523 16.6139 4.92066L16.6135 4.92032L11.281 0.772717C10.6375 0.272057 9.84536 0.00023222 9.02999 0.00023222ZM8.00702 2.35128C8.29949 2.12376 8.65945 2.00023 9.02999 2.00023C9.40054 2.00023 9.7605 2.12376 10.053 2.35128L10.053 2.35135L15.386 6.49935L15.3865 6.49968C15.7925 6.81511 16.03 7.30057 16.03 7.815V15.015C16.03 15.2802 15.9246 15.5346 15.7371 15.7221C15.5496 15.9096 15.2952 16.015 15.03 16.015H3.02999C2.76478 16.015 2.51042 15.9096 2.32289 15.7221C2.13535 15.5346 2.02999 15.2802 2.02999 15.015V7.815V7.81453C2.02988 7.56083 2.08773 7.31045 2.19915 7.08252C2.31057 6.8546 2.4726 6.65515 2.67287 6.4994L2.67288 6.4994L8.00687 2.3514L8.00702 2.35128ZM13.5165 12.8563C13.9894 12.571 14.1415 11.9564 13.8563 11.4835C13.571 11.0106 12.9564 10.8585 12.4835 11.1437C11.5695 11.695 10.3109 11.9998 8.99924 11.9998C7.68752 11.9998 6.42961 11.695 5.51683 11.1439C5.04402 10.8585 4.42935 11.0104 4.14391 11.4832C3.85847 11.956 4.01036 12.5706 4.48316 12.8561C5.77838 13.638 7.41547 13.9998 8.99924 13.9998C10.5831 13.9998 12.2205 13.638 13.5165 12.8563Z" fill="#2C3E50"/>
</svg>
