<svg width="20" height="20" viewBox="0 0 20 20" fill="none" xmlns="http://www.w3.org/2000/svg">
<path d="M11 1C11 0.447715 10.5523 0 10 0C9.44771 0 9 0.447715 9 1V4C9 4.55228 9.44771 5 10 5C10.5523 5 11 4.55228 11 4V1Z" fill="#2C3E50"/>
<path d="M17.1071 4.30711C17.4976 3.91658 17.4976 3.28342 17.1071 2.89289C16.7166 2.50237 16.0834 2.50237 15.6929 2.89289L13.5429 5.04289C13.1524 5.43342 13.1524 6.06658 13.5429 6.45711C13.9334 6.84763 14.5666 6.84763 14.9571 6.45711L17.1071 4.30711Z" fill="#2C3E50"/>
<path d="M15 10C15 9.44771 15.4477 9 16 9H19C19.5523 9 20 9.44771 20 10C20 10.5523 19.5523 11 19 11H16C15.4477 11 15 10.5523 15 10Z" fill="#2C3E50"/>
<path d="M14.9571 13.5429C14.5666 13.1524 13.9334 13.1524 13.5429 13.5429C13.1524 13.9334 13.1524 14.5666 13.5429 14.9571L15.6929 17.1071C16.0834 17.4976 16.7166 17.4976 17.1071 17.1071C17.4976 16.7166 17.4976 16.0834 17.1071 15.6929L14.9571 13.5429Z" fill="#2C3E50"/>
<path d="M10 15C10.5523 15 11 15.4477 11 16V19C11 19.5523 10.5523 20 10 20C9.44771 20 9 19.5523 9 19V16C9 15.4477 9.44771 15 10 15Z" fill="#2C3E50"/>
<path d="M6.45711 14.9571C6.84764 14.5666 6.84764 13.9334 6.45711 13.5429C6.06659 13.1524 5.43342 13.1524 5.0429 13.5429L2.8929 15.6929C2.50238 16.0834 2.50238 16.7166 2.8929 17.1071C3.28342 17.4976 3.91659 17.4976 4.30711 17.1071L6.45711 14.9571Z" fill="#2C3E50"/>
<path d="M0 10C0 9.44771 0.447715 9 1 9H4C4.55228 9 5 9.44771 5 10C5 10.5523 4.55228 11 4 11H1C0.447715 11 0 10.5523 0 10Z" fill="#2C3E50"/>
<path d="M4.30711 2.89289C3.91659 2.50237 3.28342 2.50237 2.8929 2.89289C2.50238 3.28342 2.50238 3.91658 2.8929 4.30711L5.0429 6.45711C5.43342 6.84763 6.06659 6.84763 6.45711 6.45711C6.84764 6.06658 6.84764 5.43342 6.45711 5.04289L4.30711 2.89289Z" fill="#2C3E50"/>
</svg>
