<svg width="18" height="21" viewBox="0 0 18 21" fill="none" xmlns="http://www.w3.org/2000/svg">
<path fill-rule="evenodd" clip-rule="evenodd" d="M9 2.00029C7.61555 2.00029 6.26219 2.41082 5.11105 3.17998C3.95991 3.94913 3.06271 5.04236 2.53288 6.32142C2.00306 7.60048 1.86441 9.00793 2.13448 10.3658C2.40454 11.7236 3.07115 12.9708 4.05003 13.9498C4.05006 13.9498 4.04999 13.9498 4.05003 13.9498L8.29375 18.1925C8.48126 18.3799 8.73546 18.4851 9.0005 18.4851C9.26554 18.4851 9.51975 18.3799 9.70725 18.1925L13.9499 13.9499C13.9499 13.9499 13.9499 13.9499 13.9499 13.9499C14.9288 12.9709 15.5955 11.7236 15.8655 10.3658C16.1356 9.00793 15.997 7.60048 15.4671 6.32142C14.9373 5.04236 14.0401 3.94913 12.889 3.17998C11.7378 2.41082 10.3845 2.00029 9 2.00029ZM3.99992 1.51703C5.47995 0.528119 7.21999 0.000289917 9 0.000289917C10.78 0.000289917 12.5201 0.528119 14.0001 1.51703C15.4801 2.50594 16.6337 3.91152 17.3149 5.55603C17.9961 7.20054 18.1743 9.01012 17.8271 10.7559C17.4799 12.5017 16.6228 14.1054 15.3641 15.3641L11.1211 19.6071C10.5586 20.1691 9.79563 20.4851 9.0005 20.4851C8.20538 20.4851 7.44278 20.1694 6.88025 19.6075L2.63598 15.3642C1.37735 14.1055 0.520132 12.5017 0.172903 10.7559C-0.174327 9.01012 0.00393033 7.20054 0.685133 5.55603C1.36633 3.91152 2.51989 2.50594 3.99992 1.51703ZM9 7C7.89543 7 7 7.89543 7 9C7 10.1046 7.89543 11 9 11C10.1046 11 11 10.1046 11 9C11 7.89543 10.1046 7 9 7ZM5 9C5 6.79086 6.79086 5 9 5C11.2091 5 13 6.79086 13 9C13 11.2091 11.2091 13 9 13C6.79086 13 5 11.2091 5 9Z" fill="#2C3E50"/>
</svg>
