<svg width="28" height="24" viewBox="0 0 28 24" fill="none" xmlns="http://www.w3.org/2000/svg">
<g filter="url(#filter0_d_1236_63397)">
<path fill-rule="evenodd" clip-rule="evenodd" d="M4.00004 2.98085C3.99984 2.9918 3.99982 3.00275 3.99998 3.01368V13C3.99998 14.6569 5.34313 16 6.99998 16H21C22.6568 16 24 14.6569 24 13V3.01369C24.0001 3.00275 24.0001 2.9918 23.9999 2.98084C23.9896 1.3328 22.6504 0 21 0H6.99998C5.34952 0 4.01035 1.33281 4.00004 2.98085ZM6.11207 2.53955C6.27865 2.21897 6.61374 2 6.99998 2H21C21.3862 2 21.7213 2.21897 21.8879 2.53955L14 7.79816L6.11207 2.53955ZM22 4.86853V13C22 13.5523 21.5523 14 21 14H6.99998C6.4477 14 5.99998 13.5523 5.99998 13V4.86853L13.4453 9.83206C13.7812 10.056 14.2188 10.056 14.5547 9.83206L22 4.86853Z" fill="#2C3E50"/>
</g>
<defs>
<filter id="filter0_d_1236_63397" x="-0.00012207" y="0" width="28.0002" height="24" filterUnits="userSpaceOnUse" color-interpolation-filters="sRGB">
<feFlood flood-opacity="0" result="BackgroundImageFix"/>
<feColorMatrix in="SourceAlpha" type="matrix" values="0 0 0 0 0 0 0 0 0 0 0 0 0 0 0 0 0 0 127 0" result="hardAlpha"/>
<feOffset dy="4"/>
<feGaussianBlur stdDeviation="2"/>
<feComposite in2="hardAlpha" operator="out"/>
<feColorMatrix type="matrix" values="0 0 0 0 0 0 0 0 0 0 0 0 0 0 0 0 0 0 0.25 0"/>
<feBlend mode="normal" in2="BackgroundImageFix" result="effect1_dropShadow_1236_63397"/>
<feBlend mode="normal" in="SourceGraphic" in2="effect1_dropShadow_1236_63397" result="shape"/>
</filter>
</defs>
</svg>
