<svg width="21" height="19" viewBox="0 0 21 19" fill="none" xmlns="http://www.w3.org/2000/svg">
<path fill-rule="evenodd" clip-rule="evenodd" d="M4.97841 3.56294C6.49449 2.48737 8.41552 1.9277 10.3836 2.0075C12.3517 2.08729 14.2026 2.7997 15.5964 3.98846C16.9874 5.17503 17.8227 6.74783 17.9849 8.40358L18.9801 8.30609L17.9849 8.40358C18.1469 10.0577 17.6307 11.7232 16.5023 13.0921C15.3708 14.4648 13.6971 15.4472 11.7775 15.8274L11.7775 15.8275C9.85759 16.2078 7.8509 15.9537 6.13675 15.1215C5.93653 15.0243 5.7096 14.9967 5.49191 15.043L2.50139 15.6793L3.2487 13.4373C3.34701 13.1424 3.30256 12.8185 3.12842 12.561C2.15003 11.1139 1.80514 9.41811 2.13636 7.78178L2.13636 7.78177C2.46819 6.14237 3.46443 4.63703 4.97841 3.56294ZM10.4646 0.00913846C8.07511 -0.0877451 5.71448 0.588549 3.82117 1.93175L4.39129 2.73537L3.82117 1.93175C1.92573 3.27646 0.616726 5.20816 0.176114 7.385C-0.232215 9.40228 0.138134 11.471 1.20113 13.2555L0.051335 16.7049C-0.0620826 17.0451 0.0154034 17.42 0.254406 17.6875C0.493408 17.9549 0.85732 18.0738 1.20813 17.9992L5.58162 17.0687C7.62134 17.9756 9.94464 18.2295 12.1661 17.7893C14.5043 17.3262 16.5988 16.1194 18.0456 14.3642C19.4954 12.6054 20.1917 10.4173 19.9754 8.2086C19.7591 6.00141 18.6506 3.96491 16.8943 2.46682L16.8943 2.4668C15.1404 0.970893 12.8542 0.106023 10.4646 0.00913846ZM11 9.02149C11 8.4692 10.5523 8.02149 10 8.02149C9.44773 8.02149 9.00002 8.4692 9.00002 9.02149V9.03149C9.00002 9.58377 9.44773 10.0315 10 10.0315C10.5523 10.0315 11 9.58377 11 9.03149V9.02149ZM6.00002 8.02149C6.5523 8.02149 7.00002 8.4692 7.00002 9.02149V9.03149C7.00002 9.58377 6.5523 10.0315 6.00002 10.0315C5.44773 10.0315 5.00002 9.58377 5.00002 9.03149V9.02149C5.00002 8.4692 5.44773 8.02149 6.00002 8.02149ZM15 9.02149C15 8.4692 14.5523 8.02149 14 8.02149C13.4477 8.02149 13 8.4692 13 9.02149V9.03149C13 9.58377 13.4477 10.0315 14 10.0315C14.5523 10.0315 15 9.58377 15 9.03149V9.02149Z" fill="#2C3E50"/>
</svg>
