<svg width="16" height="20" viewBox="0 0 16 20" fill="none" xmlns="http://www.w3.org/2000/svg">
<path fill-rule="evenodd" clip-rule="evenodd" d="M8 2C7.20435 2 6.44129 2.31607 5.87868 2.87868C5.31607 3.44129 5 4.20435 5 5V8H11V5C11 4.20435 10.6839 3.44129 10.1213 2.87868C9.55871 2.31607 8.79565 2 8 2ZM13 8V5C13 3.67392 12.4732 2.40215 11.5355 1.46447C10.5979 0.526784 9.32608 0 8 0C6.67392 0 5.40215 0.526784 4.46447 1.46447C3.52678 2.40215 3 3.67392 3 5V8C1.34315 8 0 9.34315 0 11V17C0 18.6569 1.34315 20 3 20H13C14.6569 20 16 18.6569 16 17V11C16 9.34315 14.6569 8 13 8ZM3 10C2.44772 10 2 10.4477 2 11V17C2 17.5523 2.44772 18 3 18H13C13.5523 18 14 17.5523 14 17V11C14 10.4477 13.5523 10 13 10H3ZM6 14C6 12.8954 6.89543 12 8 12C9.10457 12 10 12.8954 10 14C10 15.1046 9.10457 16 8 16C6.89543 16 6 15.1046 6 14Z" fill="#2C3E50"/>
</svg>
