<svg width="21" height="22" viewBox="0 0 21 22" fill="none" xmlns="http://www.w3.org/2000/svg">
<path fill-rule="evenodd" clip-rule="evenodd" d="M2.85294 1.5C2.36151 1.5 1.89021 1.69522 1.54271 2.04271C1.19861 2.38682 1.00382 2.85233 1.00006 3.33856C1.27507 7.79984 3.17133 12.007 6.33218 15.1678C9.49302 18.3287 13.7002 20.2249 18.1614 20.4999C18.6477 20.4962 19.1132 20.3014 19.4573 19.9573C19.8048 19.6098 20 19.1385 20 18.6471V14.2797L14.8273 12.2106L13.2817 14.7867C13.1478 15.0098 12.8652 15.0929 12.6318 14.9778C9.97834 13.6692 7.83079 11.5217 6.52216 8.86822C6.40706 8.63484 6.49021 8.35219 6.71334 8.21831L9.28938 6.67269L7.22031 1.5H2.85294ZM0.835607 1.33561C1.37064 0.800577 2.09629 0.5 2.85294 0.5H7.55882C7.76328 0.5 7.94713 0.624475 8.02306 0.814305L10.376 6.69666C10.4671 6.92451 10.3794 7.18484 10.169 7.3111L7.63 8.8345C8.78191 10.9677 10.5323 12.7181 12.6655 13.87L14.1889 11.331C14.3152 11.1206 14.5755 11.0329 14.8033 11.124L20.6857 13.4769C20.8755 13.5529 21 13.7367 21 13.9412V18.6471C21 19.4037 20.6994 20.1294 20.1644 20.6644C19.6294 21.1994 18.9037 21.5 18.1471 21.5C18.1369 21.5 18.1268 21.4997 18.1167 21.4991C13.4057 21.2128 8.96239 19.2123 5.62507 15.8749C2.28774 12.5376 0.28721 8.09427 0.000920713 3.38327C0.000307053 3.37317 0 3.36306 0 3.35294C0 2.59629 0.300577 1.87064 0.835607 1.33561Z" fill="#5E5E5E"/>
</svg>
