<svg width="18" height="20" viewBox="0 0 18 20" fill="none" xmlns="http://www.w3.org/2000/svg">
<path fill-rule="evenodd" clip-rule="evenodd" d="M6 1C6 0.447715 6.44772 0 7 0H17C17.5523 0 18 0.447715 18 1V9C18 9.55229 17.5523 10 17 10H14.2361L10.4472 11.8944C10.1372 12.0494 9.76909 12.0329 9.47427 11.8507C9.17945 11.6684 9 11.3466 9 11V10H7C6.44772 10 6 9.55229 6 9V1ZM11 9.38197L13.5528 8.10557C13.6916 8.03615 13.8448 8 14 8H16V2H8V8H10C10.5523 8 11 8.44772 11 9V9.38197ZM0.585787 2.58579C0.960859 2.21071 1.46957 2 2 2H4C4.55228 2 5 2.44772 5 3C5 3.55228 4.55228 4 4 4H2L2 18H10V14C10 13.4477 10.4477 13 11 13C11.5523 13 12 13.4477 12 14V18C12 18.5304 11.7893 19.0391 11.4142 19.4142C11.0391 19.7893 10.5304 20 10 20H2C1.46957 20 0.960861 19.7893 0.585787 19.4142C0.210714 19.0391 0 18.5304 0 18V4C0 3.46957 0.210714 2.96086 0.585787 2.58579ZM6 15C6.55228 15 7 15.4477 7 16V16.01C7 16.5623 6.55228 17.01 6 17.01C5.44772 17.01 5 16.5623 5 16.01V16C5 15.4477 5.44772 15 6 15Z" fill="#2C3E50"/>
</svg>
