<svg width="21" height="21" viewBox="0 0 21 21" fill="none" xmlns="http://www.w3.org/2000/svg">
<path fill-rule="evenodd" clip-rule="evenodd" d="M20.7071 0.292891C20.9813 0.567048 21.0722 0.974973 20.9406 1.33964L14.4406 19.3396C14.4311 19.3657 14.4207 19.3914 14.4091 19.4166C14.2855 19.6864 14.0869 19.9151 13.8372 20.0754C13.5874 20.2357 13.2968 20.3209 13 20.3209C12.7032 20.3209 12.4126 20.2357 12.1629 20.0754C11.9191 19.9189 11.7241 19.6973 11.5999 19.4359L8.25465 12.7454L1.56413 9.40009C1.3027 9.27592 1.08112 9.08096 0.92465 8.83714C0.764351 8.58736 0.679138 8.2968 0.679138 8C0.679138 7.7032 0.764351 7.41264 0.92465 7.16285C1.08495 6.91307 1.31359 6.71455 1.58341 6.59091C1.60862 6.57936 1.63429 6.56886 1.66036 6.55944L19.6604 0.0594439C20.025 -0.0722422 20.433 0.0187332 20.7071 0.292891ZM10.2168 12.1975L12.9322 17.6282L17.5365 4.87769L10.2168 12.1975ZM16.1223 3.46348L3.37177 8.06784L8.80256 10.7832L16.1223 3.46348Z" fill="#2C3E50"/>
</svg>
