<svg width="20" height="20" viewBox="0 0 20 20" fill="none" xmlns="http://www.w3.org/2000/svg">
<path fill-rule="evenodd" clip-rule="evenodd" d="M15.6569 4.34315C12.5327 1.21896 7.46741 1.21896 4.34321 4.34316C1.22874 7.45761 1.21905 12.5011 4.31414 15.6276C5.40843 13.9767 7.66503 13 10 13C12.335 13 14.5916 13.9768 15.6859 15.6276C18.781 12.5012 18.7714 7.45765 15.6569 4.34315ZM14.0961 16.8741C11.5809 18.3753 8.41913 18.3753 5.90396 16.874C6.47569 15.8925 7.94193 15 10 15C12.0581 15 13.5244 15.8925 14.0961 16.8741ZM2.929 2.92894C6.83425 -0.976302 13.1659 -0.976305 17.0711 2.92894C20.9763 6.83419 20.9763 13.1658 17.0711 17.071C13.1659 20.9763 6.83423 20.9763 2.929 17.071C-0.976242 13.1658 -0.976243 6.83417 2.929 2.92894L2.929 2.92894ZM8.58576 6.58579C9.36681 5.80475 10.6331 5.80474 11.4142 6.5858C12.1953 7.36685 12.1953 8.63317 11.4142 9.41419L11.4142 9.4142C10.6331 10.1953 9.36681 10.1953 8.58577 9.41421L8.58576 9.41419C7.80472 8.63317 7.80472 7.36684 8.58576 6.58579ZM12.8284 5.17157C11.2663 3.6095 8.73365 3.60948 7.17155 5.17158C5.60946 6.73367 5.60945 9.26634 7.17156 10.8284C8.73364 12.3905 11.2663 12.3905 12.8284 10.8284C14.3905 9.26635 14.3905 6.73366 12.8284 5.17157Z" fill="#2C3E50"/>
</svg>
