<svg width="18" height="18" viewBox="0 0 18 18" fill="none" xmlns="http://www.w3.org/2000/svg">
<path fill-rule="evenodd" clip-rule="evenodd" d="M3.75 1.75C3.15326 1.75 2.58097 1.98705 2.15901 2.40901C1.73705 2.83097 1.5 3.40326 1.5 4V15.1893L4.21967 12.4697C4.36032 12.329 4.55109 12.25 4.75 12.25H13.75C14.3467 12.25 14.919 12.0129 15.341 11.591C15.7629 11.169 16 10.5967 16 10V4C16 3.40326 15.7629 2.83097 15.341 2.40901C14.919 1.98705 14.3467 1.75 13.75 1.75H3.75ZM1.09835 1.34835C1.80161 0.645088 2.75544 0.25 3.75 0.25H13.75C14.7446 0.25 15.6984 0.645088 16.4016 1.34835C17.1049 2.05161 17.5 3.00544 17.5 4V10C17.5 10.9946 17.1049 11.9484 16.4016 12.6517C15.6984 13.3549 14.7446 13.75 13.75 13.75H5.06066L1.28033 17.5303C1.06583 17.7448 0.743243 17.809 0.462987 17.6929C0.182732 17.5768 0 17.3033 0 17V4C0 3.00544 0.395088 2.05161 1.09835 1.34835ZM4 5C4 4.58579 4.33579 4.25 4.75 4.25H12.75C13.1642 4.25 13.5 4.58579 13.5 5C13.5 5.41421 13.1642 5.75 12.75 5.75H4.75C4.33579 5.75 4 5.41421 4 5ZM4 9C4 8.58579 4.33579 8.25 4.75 8.25H10.75C11.1642 8.25 11.5 8.58579 11.5 9C11.5 9.41421 11.1642 9.75 10.75 9.75H4.75C4.33579 9.75 4 9.41421 4 9Z" fill="#5E5E5E"/>
</svg>
