<svg width="20" height="20" viewBox="0 0 20 20" fill="none" xmlns="http://www.w3.org/2000/svg">
<path fill-rule="evenodd" clip-rule="evenodd" d="M13.7929 1.79289C14.3783 1.20753 15.1722 0.878677 16 0.878677C16.8278 0.878677 17.6217 1.20753 18.2071 1.79289C18.7925 2.37825 19.1213 3.17217 19.1213 4C19.1213 4.82782 18.7925 5.62174 18.2071 6.2071L16.7087 7.70553C16.7082 7.70605 16.7076 7.70658 16.7071 7.7071C16.7066 7.70763 16.7061 7.70815 16.7055 7.70867L9.7071 14.7071C9.51957 14.8946 9.26521 15 9 15H6C5.44771 15 5 14.5523 5 14V11C5 10.7348 5.10535 10.4804 5.29289 10.2929L13.7929 1.79289ZM13 5.41421L7 11.4142V13H8.58578L14.5858 6.99999L13 5.41421ZM16 5.58578L14.4142 3.99999L15.2071 3.2071C15.4174 2.99682 15.7026 2.87868 16 2.87868C16.2974 2.87868 16.5826 2.99682 16.7929 3.2071C17.0032 3.41739 17.1213 3.70261 17.1213 4C17.1213 4.29739 17.0032 4.5826 16.7929 4.79289L16 5.58578ZM0.87868 5.87869C1.44129 5.31608 2.20435 5.00001 3 5.00001H6C6.55228 5.00001 7 5.44772 7 6.00001C7 6.55229 6.55228 7.00001 6 7.00001H3C2.73478 7.00001 2.48043 7.10536 2.29289 7.2929C2.10536 7.48044 2 7.73479 2 8.00001V17C2 17.2652 2.10536 17.5196 2.29289 17.7071C2.48043 17.8946 2.73478 18 3 18H12C12.2652 18 12.5196 17.8946 12.7071 17.7071C12.8946 17.5196 13 17.2652 13 17V14C13 13.4477 13.4477 13 14 13C14.5523 13 15 13.4477 15 14V17C15 17.7957 14.6839 18.5587 14.1213 19.1213C13.5587 19.6839 12.7956 20 12 20H3C2.20435 20 1.44129 19.6839 0.87868 19.1213C0.316071 18.5587 0 17.7957 0 17V8.00001C0 7.20436 0.31607 6.4413 0.87868 5.87869Z" fill="#2C3E50"/>
</svg>
