<svg width="20" height="20" viewBox="0 0 20 20" fill="none" xmlns="http://www.w3.org/2000/svg">
<path fill-rule="evenodd" clip-rule="evenodd" d="M2.10557 0.552786C2.27496 0.214002 2.62123 0 3 0H17C17.3788 0 17.725 0.214002 17.8944 0.552786L19.8944 4.55279C19.9639 4.69164 20 4.84476 20 5V6C20 7.06087 19.5786 8.07828 18.8284 8.82843C18.5791 9.07778 18.3002 9.29081 18 9.46411V18H19C19.5523 18 20 18.4477 20 19C20 19.5523 19.5523 20 19 20H17.0034L17 20L16.9966 20H13H7H3.00342L3 20L2.99658 20H1C0.447715 20 0 19.5523 0 19C0 18.4477 0.447715 18 1 18H2V9.46411C1.69981 9.29081 1.42092 9.07778 1.17157 8.82843C0.421427 8.07828 0 7.06087 0 6V5C0 4.84476 0.0361451 4.69164 0.105573 4.55279L2.10557 0.552786ZM8 18H12V15C12 14.7348 11.8946 14.4804 11.7071 14.2929C11.5196 14.1054 11.2652 14 11 14H9C8.73478 14 8.48043 14.1054 8.29289 14.2929C8.10536 14.4804 8 14.7348 8 15V18ZM14 18V15C14 14.2043 13.6839 13.4413 13.1213 12.8787C12.5587 12.3161 11.7957 12 11 12H9C8.20435 12 7.44129 12.3161 6.87868 12.8787C6.31607 13.4413 6 14.2043 6 15V18H4V10C5.06087 10 6.07828 9.57857 6.82843 8.82843C6.88952 8.76733 6.94843 8.70447 7.00511 8.63995C7.05665 8.70563 7.11203 8.76889 7.17157 8.82843C7.92172 9.57857 8.93913 10 10 10C11.0609 10 12.0783 9.57857 12.8284 8.82843C12.8877 8.76917 12.9449 8.70824 13 8.64576C13.0551 8.70824 13.1123 8.76917 13.1716 8.82843C13.9217 9.57857 14.9391 10 16 10V18H14ZM8.11167 6C8.1367 6.13449 8.16603 6.27269 8.19972 6.41045C8.26598 6.68133 8.34309 6.92505 8.42489 7.11825C8.46545 7.21403 8.5032 7.28795 8.53571 7.34185C8.56541 7.3911 8.58353 7.41162 8.58575 7.41414L8.58578 7.41417C8.58605 7.41448 8.58606 7.41448 8.58579 7.41421C8.96086 7.78929 9.46957 8 10 8C10.5304 8 11.0391 7.78929 11.4142 7.41421C11.7893 7.03914 12 6.53043 12 6H8.11167ZM6 6H2C2 6.53043 2.21071 7.03914 2.58579 7.41421C2.96086 7.78929 3.46957 8 4 8C4.53043 8 5.03914 7.78929 5.41421 7.41421C5.78929 7.03914 6 6.53043 6 6ZM2.61803 4H7H13H17.382L16.382 2H3.61803L2.61803 4ZM18 6H14C14 6.53043 14.2107 7.03914 14.5858 7.41421C14.9609 7.78929 15.4696 8 16 8C16.5304 8 17.0391 7.78929 17.4142 7.41421C17.7893 7.03914 18 6.53043 18 6Z" fill="#2C3E50"/>
</svg>
