<svg width="23" height="19" viewBox="0 0 23 19" fill="none" xmlns="http://www.w3.org/2000/svg">
<path fill-rule="evenodd" clip-rule="evenodd" d="M12.4322 3.03387C11.8265 2.92373 11.2019 2.92204 10.5953 3.02893C9.98878 3.13582 9.41608 3.34847 8.90948 3.65116C7.8858 4.26278 7.20558 5.19493 6.97571 6.21901C6.87323 6.67555 6.46788 7 5.99999 7C5.00349 7 4.05627 7.37906 3.36459 8.04066C2.67443 8.70081 2.29544 9.58644 2.29544 10.5C2.29544 11.4135 2.67443 12.2992 3.36459 12.9593C4.05627 13.6209 5.00349 14 5.99999 14C6.55227 14 6.99999 14.4477 6.99999 15C6.99999 15.5523 6.55227 16 5.99999 16C4.50103 16 3.05502 15.4308 1.98215 14.4046C0.907762 13.3769 0.295441 11.9734 0.295441 10.5C0.295441 9.0266 0.907762 7.62305 1.98215 6.59538C2.87259 5.74364 4.02008 5.20676 5.24153 5.04881C5.7196 3.76252 6.6549 2.66843 7.88367 1.93427C8.60486 1.50337 9.40848 1.20727 10.2482 1.05929C11.0879 0.911305 11.9512 0.913619 12.79 1.06613C13.6288 1.21864 14.4306 1.5191 15.1491 1.95397C15.8677 2.38893 16.4912 2.95128 16.9795 3.61332C17.4681 4.27568 17.8112 5.02416 17.9837 5.817C18.0687 6.20796 18.1112 6.60469 18.1111 7.00137C19.2643 7.02982 20.3643 7.50033 21.182 8.31802C22.0259 9.16193 22.5 10.3065 22.5 11.5C22.5 12.6935 22.0259 13.8381 21.182 14.682C20.3381 15.5259 19.1935 16 18 16H17C16.4477 16 16 15.5523 16 15C16 14.4477 16.4477 14 17 14H18C18.663 14 19.2989 13.7366 19.7678 13.2678C20.2366 12.7989 20.5 12.163 20.5 11.5C20.5 10.837 20.2366 10.2011 19.7678 9.73223C19.2989 9.26339 18.663 9 18 9H17C16.6963 9 16.4091 8.86199 16.2193 8.62489C16.0295 8.38779 15.9578 8.0773 16.0243 7.78098C16.1383 7.27295 16.14 6.75071 16.0294 6.24219C15.9187 5.73339 15.6965 5.24319 15.37 4.80053C15.0432 4.35755 14.6178 3.9702 14.1135 3.66498C13.6091 3.35969 13.0379 3.144 12.4322 3.03387ZM10.2929 8.29289C10.6834 7.90237 11.3166 7.90237 11.7071 8.29289L14.7071 11.2929C15.0976 11.6834 15.0976 12.3166 14.7071 12.7071C14.3166 13.0976 13.6834 13.0976 13.2929 12.7071L12 11.4142V18C12 18.5523 11.5523 19 11 19C10.4477 19 9.99999 18.5523 9.99999 18V11.4142L8.70709 12.7071C8.31657 13.0976 7.6834 13.0976 7.29288 12.7071C6.90236 12.3166 6.90236 11.6834 7.29288 11.2929L10.2929 8.29289Z" fill="#2C3E50"/>
</svg>
