<svg width="20" height="20" viewBox="0 0 20 20" fill="none" xmlns="http://www.w3.org/2000/svg">
<path fill-rule="evenodd" clip-rule="evenodd" d="M7 2C5.34315 2 4 3.34315 4 5C4 6.65685 5.34315 8 7 8C8.65685 8 10 6.65685 10 5C10 3.34315 8.65685 2 7 2ZM2 5C2 2.23858 4.23858 0 7 0C9.76142 0 12 2.23858 12 5C12 7.76142 9.76142 10 7 10C4.23858 10 2 7.76142 2 5ZM13.0312 0.881961C13.1682 0.346935 13.713 0.0242618 14.248 0.16125C15.3236 0.436626 16.2768 1.06213 16.9576 1.93914C17.6383 2.81615 18.0078 3.89479 18.0078 5.005C18.0078 6.11521 17.6383 7.19385 16.9576 8.07086C16.2768 8.94787 15.3236 9.57337 14.248 9.84875C13.713 9.98574 13.1682 9.66306 13.0312 9.12804C12.8943 8.59301 13.2169 8.04824 13.752 7.91125C14.3973 7.74602 14.9692 7.37072 15.3777 6.84452C15.7861 6.31831 16.0078 5.67113 16.0078 5.005C16.0078 4.33887 15.7861 3.69169 15.3777 3.16548C14.9692 2.63928 14.3973 2.26398 13.752 2.09875C13.2169 1.96176 12.8943 1.41699 13.0312 0.881961ZM5 14C4.20435 14 3.44129 14.3161 2.87868 14.8787C2.31607 15.4413 2 16.2044 2 17V19C2 19.5523 1.55228 20 1 20C0.447715 20 0 19.5523 0 19V17C0 15.6739 0.526784 14.4021 1.46447 13.4645C2.40215 12.5268 3.67392 12 5 12H9C10.3261 12 11.5979 12.5268 12.5355 13.4645C13.4732 14.4021 14 15.6739 14 17V19C14 19.5523 13.5523 20 13 20C12.4477 20 12 19.5523 12 19V17C12 16.2044 11.6839 15.4413 11.1213 14.8787C10.5587 14.3161 9.79565 14 9 14H5ZM15.0317 12.9C15.1698 12.3653 15.7152 12.0437 16.25 12.1817C17.3185 12.4576 18.2658 13.0793 18.9441 13.9498C19.6224 14.8202 19.9936 15.8907 20 16.9943L20 17L20 19C20 19.5523 19.5523 20 19 20C18.4477 20 18 19.5523 18 19V17.003C17.9956 16.3418 17.7729 15.7006 17.3665 15.1791C16.9595 14.6568 16.3911 14.2838 15.75 14.1182C15.2153 13.9802 14.8937 13.4348 15.0317 12.9Z" fill="#2C3E50"/>
</svg>
