<svg width="21" height="20" viewBox="0 0 21 20" fill="none" xmlns="http://www.w3.org/2000/svg">
<path fill-rule="evenodd" clip-rule="evenodd" d="M7 2C5.34315 2 4 3.34315 4 5C4 6.65685 5.34315 8 7 8C8.65685 8 10 6.65685 10 5C10 3.34315 8.65685 2 7 2ZM2 5C2 2.23858 4.23858 0 7 0C9.76142 0 12 2.23858 12 5C12 7.76142 9.76142 10 7 10C4.23858 10 2 7.76142 2 5ZM17 5C17.5523 5 18 5.44772 18 6V8H20C20.5523 8 21 8.44772 21 9C21 9.55229 20.5523 10 20 10H18V12C18 12.5523 17.5523 13 17 13C16.4477 13 16 12.5523 16 12V10H14C13.4477 10 13 9.55229 13 9C13 8.44772 13.4477 8 14 8H16V6C16 5.44772 16.4477 5 17 5ZM5 14C4.20435 14 3.44129 14.3161 2.87868 14.8787C2.31607 15.4413 2 16.2044 2 17V19C2 19.5523 1.55228 20 1 20C0.447715 20 0 19.5523 0 19V17C0 15.6739 0.526784 14.4021 1.46447 13.4645C2.40215 12.5268 3.67392 12 5 12H9C10.3261 12 11.5979 12.5268 12.5355 13.4645C13.4732 14.4021 14 15.6739 14 17V19C14 19.5523 13.5523 20 13 20C12.4477 20 12 19.5523 12 19V17C12 16.2044 11.6839 15.4413 11.1213 14.8787C10.5587 14.3161 9.79565 14 9 14H5Z" fill="#2C3E50"/>
</svg>
