<svg width="20" height="20" viewBox="0 0 20 20" fill="none" xmlns="http://www.w3.org/2000/svg">
<path fill-rule="evenodd" clip-rule="evenodd" d="M10 2.11519C9.30635 3.33994 8.77977 4.64657 8.43028 6.00013H11.5697C11.2203 4.64657 10.6937 3.33994 10 2.11519ZM11.9523 8.00013H8.04769C7.9644 8.66128 7.92221 9.3292 7.92221 10.0001C7.92221 10.6711 7.9644 11.339 8.0477 12.0001H11.9523C12.0356 11.339 12.0778 10.6711 12.0778 10.0001C12.0778 9.3292 12.0356 8.66128 11.9523 8.00013ZM13.9664 12.0001C14.0404 11.3381 14.0778 10.6705 14.0778 10.0001C14.0778 9.3298 14.0404 8.66215 13.9664 8.00013H17.748C17.9125 8.63937 18 9.30953 18 10.0001C18 10.6907 17.9125 11.3609 17.748 12.0001H13.9664ZM11.5697 14.0001H8.43028C8.77977 15.3537 9.30635 16.6603 10 17.8851C10.6937 16.6603 11.2203 15.3537 11.5697 14.0001ZM12.3753 17.6416C12.9225 16.4745 13.3421 15.2535 13.6277 14.0001H16.9298C15.9329 15.7235 14.3116 17.0404 12.3753 17.6416ZM10.3794 19.9931C10.4959 20.0072 10.6135 20.0004 10.7265 19.9741C15.9102 19.602 20 15.2787 20 10.0001C20 4.7216 15.9102 0.398277 10.7265 0.0261183C10.6135 -0.000156655 10.4959 -0.00688885 10.3794 0.00719617C10.2535 0.00250136 10.127 0.000133079 10 0.000133079C9.87298 0.000133079 9.74651 0.0025013 9.62064 0.00719598C9.50407 -0.00688866 9.38653 -0.00015656 9.27353 0.0261178C4.08982 0.398273 0 4.72159 0 10.0001C0 15.2787 4.08983 19.602 9.27353 19.9741C9.38653 20.0004 9.50407 20.0072 9.62064 19.9931C9.74651 19.9978 9.87298 20.0001 10 20.0001C10.127 20.0001 10.2535 19.9978 10.3794 19.9931ZM12.3753 2.35867C14.3116 2.95989 15.9329 4.27682 16.9298 6.00013H13.6277C13.3421 4.74677 12.9225 3.52579 12.3753 2.35867ZM7.62473 17.6416C7.07749 16.4745 6.65796 15.2535 6.37228 14.0001H3.07025C4.06713 15.7235 5.6884 17.0404 7.62473 17.6416ZM5.92221 10.0001C5.92221 9.3298 5.95964 8.66215 6.03366 8.00013H2.25204C2.08751 8.63937 2 9.30953 2 10.0001C2 10.6907 2.0875 11.3609 2.25203 12.0001H6.03366C5.95964 11.3381 5.92221 10.6705 5.92221 10.0001ZM6.37228 6.00013C6.65796 4.74676 7.07749 3.52578 7.62472 2.35865C5.68841 2.95988 4.06714 4.27682 3.07026 6.00013H6.37228Z" fill="#2C3E50"/>
</svg>
